<svg width="183" height="66" fill="none" xmlns="http://www.w3.org/2000/svg"><g clip-path="url(#clip0)" fill="#fff"><path d="M13.712.696c5.203 0 8.902 2.946 8.902 8.15 0 3.642-2.15 5.901-5.069 6.723v.524c2.92.823 5.07 3.082 5.07 6.768 0 5.034-3.744 8.196-8.903 8.196H0V.696h13.712zM5.678 13.229h7.478c2.41 0 4.04-1.21 4.04-3.687 0-2.476-1.63-3.641-4.04-3.641H5.678v7.328zm0 12.623h7.478c2.41 0 4.04-1.21 4.04-3.686s-1.63-3.732-4.04-3.732H5.678v7.418zM.43 34.428c-.045 0-.09.009-.134.009v5.123c.044 0 .09-.009.134-.009 4.21 0 6.708 2.91 6.708 7.202v6.94c0 4.21-2.024 7.202-6.708 7.202-.045 0-.09-.01-.134-.01V66c.044 0 .09.009.134.009 7.693 0 12.386-4.6 12.386-12.578v-6.416c0-7.771-4.693-12.587-12.386-12.587zm33.406 20.467c0 3.686-2.194 5.981-6.108 5.981-3.914 0-6.108-2.295-6.108-5.981V35.033h-5.678v19.609c0 6.94 4.254 11.367 11.777 11.367s11.777-4.428 11.777-11.367V35.033h-5.678v19.862h.018zm27.944 5.123h-.52l-6.878-24.985H44.324v30.362h5.669V40.41h.52l6.878 24.985h10.057V35.033H61.78v24.985zm20.974-24.985H72.437v30.362h10.317c8.079 0 12.387-4.03 12.387-12.317V47.35c-.01-8.286-4.308-12.316-12.387-12.316zm6.709 18.217c0 4.428-1.765 6.94-6.62 6.94h-4.728V40.238h4.729c4.854 0 6.619 2.512 6.619 6.94v6.072zm15.126-18.217H98.92v30.362h19.605V60.19h-13.936V35.033zm22.614 17.657H140.1v-5.205h-12.897v-7.247h14.106v-5.205h-19.784v30.362h20.035V60.19h-14.357v-7.5zm30.138-5.34l-.385-.091c-3.61-.822-6.279-1.346-6.279-4.21 0-2.08 1.845-3.597 4.855-3.597 3.439 0 5.633 1.518 5.633 4.988v.912h5.499v-1.3c0-6.073-4.684-9.633-11.132-9.633-5.849 0-10.443 3.38-10.443 8.8 0 5.513 3.699 7.682 9.932 9.064l.385.09c3.959.868 6.189 1.735 6.189 4.383 0 2.26-1.72 4.21-5.374 4.21-4.558 0-6.663-2.511-6.663-6.243v-.777h-5.589v.958c0 7.111 4.729 11.105 12.082 11.105 6.404 0 11.133-3.425 11.133-9.542 0-5.512-3.655-7.726-9.843-9.118zm25.578-.082c-3.609-.822-6.278-1.346-6.278-4.21 0-2.08 1.845-3.597 4.854-3.597.529 0 1.03.045 1.496.117V34.51a16.24 16.24 0 00-1.496-.072c-5.848 0-10.451 3.38-10.451 8.8 0 5.513 3.699 7.682 9.932 9.064l.385.09c.582.127 1.12.254 1.63.39v-5.495l-.072-.018zm-.734 13.699c-4.559 0-6.663-2.512-6.663-6.244v-.777h-5.589v.958c0 7.111 4.729 11.105 12.082 11.105.331 0 .663-.018.985-.036v-5.051c-.269.018-.528.045-.815.045zM38.646 26.548c-4.21 0-6.709-2.91-6.709-7.202v-6.94c0-4.21 2.025-7.201 6.709-7.201H182.99V0L38.646.09c-7.694 0-12.387 4.6-12.387 12.579v6.415c0 7.762 4.684 12.579 12.387 12.579H182.99v-5.45l-144.345.335z"/></g><defs><clipPath id="clip0"><path fill="#fff" d="M0 0h183v66H0z"/></clipPath></defs></svg>